<svg width="426" height="103" viewBox="0 0 426 103" fill="none" xmlns="http://www.w3.org/2000/svg">
<rect x="1" y="59.9193" width="71.5921" height="71.5921" rx="2" transform="rotate(-54 1 59.9193)" fill="#B3B3B3" stroke="#999999" stroke-width="2"/>
<rect x="12" y="23.5595" width="67.5011" height="68.183" rx="23" transform="rotate(-9 12 23.5595)" fill="#CA500E"/>
<path d="M143.233 77.712C139.265 77.712 135.66 77.0507 132.417 75.728C129.175 74.448 126.401 72.6347 124.097 70.288C121.793 67.8987 120.001 65.04 118.721 61.712C117.484 58.384 116.865 54.6933 116.865 50.64C116.865 46.5867 117.527 42.896 118.849 39.568C120.215 36.24 122.071 33.4027 124.417 31.056C126.764 28.6667 129.559 26.832 132.801 25.552C136.044 24.2293 139.543 23.568 143.297 23.568C149.015 23.568 153.793 24.848 157.633 27.408C161.516 29.9253 164.375 33.5093 166.209 38.16C166.295 38.416 166.337 38.5867 166.337 38.672C166.337 39.184 166.06 39.4827 165.505 39.568L154.625 42.448C154.455 42.5333 154.327 42.576 154.241 42.576C153.857 42.576 153.516 42.3627 153.217 41.936C151.084 38.2667 147.777 36.432 143.297 36.432C141.377 36.432 139.628 36.7733 138.049 37.456C136.513 38.096 135.191 39.0347 134.081 40.272C132.972 41.5093 132.097 43.0027 131.457 44.752C130.86 46.5013 130.561 48.464 130.561 50.64C130.561 52.816 130.86 54.7787 131.457 56.528C132.097 58.2773 132.972 59.7707 134.081 61.008C135.233 62.2453 136.577 63.2053 138.113 63.888C139.692 64.528 141.42 64.848 143.297 64.848C145.9 64.848 148.161 64.2933 150.081 63.184C152.044 62.032 153.516 60.112 154.497 57.424C154.796 56.7413 155.244 56.4853 155.841 56.656L166.657 59.536C167.34 59.7067 167.617 60.0907 167.489 60.688C166.721 63.1627 165.612 65.4453 164.161 67.536C162.711 69.6267 160.94 71.44 158.849 72.976C156.801 74.4693 154.455 75.6213 151.809 76.432C149.207 77.2853 146.348 77.712 143.233 77.712ZM188.993 77.392C186.391 77.392 184.001 76.9227 181.825 75.984C179.692 75.0453 177.857 73.7227 176.321 72.016C174.785 70.2667 173.591 68.1973 172.737 65.808C171.884 63.4187 171.457 60.752 171.457 57.808C171.457 54.864 171.884 52.1973 172.737 49.808C173.591 47.4187 174.785 45.3707 176.321 43.664C177.857 41.9573 179.692 40.6347 181.825 39.696C184.001 38.7573 186.391 38.288 188.993 38.288C191.425 38.288 193.58 38.736 195.457 39.632C197.335 40.528 198.956 41.7867 200.321 43.408L200.449 40.08C200.449 39.7387 200.556 39.4827 200.769 39.312C200.983 39.0987 201.26 38.992 201.601 38.992H210.497C211.265 38.992 211.649 39.3547 211.649 40.08V75.536C211.649 76.304 211.265 76.688 210.497 76.688H201.601C201.26 76.688 200.983 76.5813 200.769 76.368C200.556 76.1547 200.449 75.8773 200.449 75.536L200.321 72.208C198.956 73.872 197.335 75.152 195.457 76.048C193.58 76.944 191.425 77.392 188.993 77.392ZM192.129 66.192C194.433 66.192 196.289 65.424 197.697 63.888C199.148 62.3093 199.873 60.2827 199.873 57.808C199.873 55.3333 199.148 53.328 197.697 51.792C196.289 50.256 194.433 49.488 192.129 49.488C189.825 49.488 187.948 50.256 186.497 51.792C185.089 53.328 184.385 55.3333 184.385 57.808C184.385 60.2827 185.089 62.3093 186.497 63.888C187.948 65.424 189.825 66.192 192.129 66.192ZM221.029 76.688C220.261 76.688 219.877 76.304 219.877 75.536V40.08C219.877 39.3547 220.261 38.992 221.029 38.992H229.925C230.736 38.992 231.141 39.3547 231.141 40.08L231.333 43.92C232.613 42 234.213 40.6133 236.133 39.76C238.053 38.9067 240.144 38.48 242.405 38.48C242.875 38.48 243.344 38.5013 243.813 38.544C244.283 38.5867 244.709 38.672 245.093 38.8C245.776 39.0133 246.117 39.44 246.117 40.08V49.808C246.117 50.5333 245.691 50.832 244.837 50.704C244.325 50.6187 243.771 50.5547 243.173 50.512C242.576 50.4267 241.915 50.384 241.189 50.384C240.251 50.384 239.269 50.5333 238.245 50.832C237.264 51.1307 236.347 51.6 235.493 52.24C234.683 52.88 234 53.712 233.445 54.736C232.933 55.7173 232.677 56.912 232.677 58.32V75.536C232.677 76.304 232.293 76.688 231.525 76.688H221.029ZM266.618 77.392C264.016 77.392 261.626 76.9227 259.45 75.984C257.317 75.0453 255.482 73.7227 253.946 72.016C252.41 70.2667 251.216 68.1973 250.362 65.808C249.509 63.4187 249.082 60.752 249.082 57.808C249.082 54.864 249.509 52.1973 250.362 49.808C251.216 47.4187 252.41 45.3707 253.946 43.664C255.482 41.9573 257.317 40.6347 259.45 39.696C261.626 38.7573 264.016 38.288 266.618 38.288C269.05 38.288 271.205 38.736 273.082 39.632C274.96 40.528 276.581 41.7867 277.946 43.408L278.074 40.08C278.074 39.7387 278.181 39.4827 278.394 39.312C278.608 39.0987 278.885 38.992 279.226 38.992H288.122C288.89 38.992 289.274 39.3547 289.274 40.08V75.536C289.274 76.304 288.89 76.688 288.122 76.688H279.226C278.885 76.688 278.608 76.5813 278.394 76.368C278.181 76.1547 278.074 75.8773 278.074 75.536L277.946 72.208C276.581 73.872 274.96 75.152 273.082 76.048C271.205 76.944 269.05 77.392 266.618 77.392ZM269.754 66.192C272.058 66.192 273.914 65.424 275.322 63.888C276.773 62.3093 277.498 60.2827 277.498 57.808C277.498 55.3333 276.773 53.328 275.322 51.792C273.914 50.256 272.058 49.488 269.754 49.488C267.45 49.488 265.573 50.256 264.122 51.792C262.714 53.328 262.01 55.3333 262.01 57.808C262.01 60.2827 262.714 62.3093 264.122 63.888C265.573 65.424 267.45 66.192 269.754 66.192ZM298.654 76.688C297.886 76.688 297.502 76.304 297.502 75.536V40.08C297.502 39.3547 297.886 38.992 298.654 38.992H307.614C308.382 38.992 308.766 39.3547 308.766 40.08L308.958 43.664C310.324 41.8293 311.966 40.4853 313.886 39.632C315.849 38.736 318.068 38.288 320.542 38.288C323.23 38.288 325.556 38.7787 327.518 39.76C329.524 40.7413 331.102 42.1707 332.254 44.048C333.62 42.0853 335.326 40.6347 337.374 39.696C339.465 38.7573 341.812 38.288 344.414 38.288C348.809 38.288 352.18 39.504 354.526 41.936C356.916 44.368 358.11 47.76 358.11 52.112V75.536C358.11 76.304 357.769 76.688 357.086 76.688H346.526C346.185 76.688 345.908 76.5813 345.694 76.368C345.481 76.1547 345.374 75.8773 345.374 75.536V56.912C345.374 54.2667 344.948 52.368 344.094 51.216C343.284 50.064 342.004 49.488 340.254 49.488C338.42 49.488 336.948 50.192 335.838 51.6C334.772 52.9653 334.238 55.0347 334.238 57.808V75.536C334.238 76.304 333.854 76.688 333.086 76.688H322.59C321.822 76.688 321.438 76.304 321.438 75.536V56.912C321.438 54.2667 321.033 52.368 320.222 51.216C319.412 50.064 318.11 49.488 316.318 49.488C314.526 49.488 313.076 50.192 311.966 51.6C310.857 52.9653 310.302 55.0347 310.302 57.808V75.536C310.302 76.304 309.918 76.688 309.15 76.688H298.654ZM383.983 77.392C380.997 77.392 378.266 76.9013 375.791 75.92C373.359 74.9813 371.29 73.6587 369.583 71.952C367.877 70.2027 366.554 68.1333 365.615 65.744C364.677 63.3547 364.207 60.7093 364.207 57.808C364.207 54.9067 364.677 52.2613 365.615 49.872C366.554 47.4827 367.877 45.4347 369.583 43.728C371.29 42.0213 373.359 40.6987 375.791 39.76C378.266 38.7787 380.997 38.288 383.983 38.288C387.141 38.288 389.914 38.8213 392.303 39.888C394.693 40.9547 396.677 42.448 398.255 44.368C399.834 46.2453 400.986 48.528 401.711 51.216C402.479 53.8613 402.778 56.784 402.607 59.984C402.522 60.7093 402.117 61.072 401.391 61.072H377.135C377.605 62.9493 378.415 64.3787 379.567 65.36C380.762 66.3413 382.255 66.832 384.047 66.832C386.906 66.832 388.975 65.936 390.255 64.144C390.682 63.6747 391.194 63.504 391.791 63.632L400.879 66.704C401.349 66.9173 401.583 67.1947 401.583 67.536C401.583 67.7067 401.519 67.92 401.391 68.176C400.538 69.7973 399.471 71.184 398.191 72.336C396.954 73.488 395.567 74.4267 394.031 75.152C392.538 75.92 390.938 76.4747 389.231 76.816C387.525 77.2 385.775 77.392 383.983 77.392ZM390.063 54.096C389.722 52.2187 389.018 50.7893 387.951 49.808C386.885 48.784 385.498 48.272 383.791 48.272C381.999 48.272 380.527 48.7627 379.375 49.744C378.266 50.7253 377.519 52.176 377.135 54.096H390.063ZM409.904 76.688C409.136 76.688 408.752 76.304 408.752 75.536V24.592C408.752 23.824 409.136 23.44 409.904 23.44H420.4C421.168 23.44 421.552 23.824 421.552 24.592V75.536C421.552 76.304 421.168 76.688 420.4 76.688H409.904Z" fill="#222222"/>
</svg>
