<svg width="425" height="103" viewBox="0 0 425 103" fill="none" xmlns="http://www.w3.org/2000/svg">
<rect y="59.9193" width="71.5921" height="71.5921" rx="2" transform="rotate(-54 0 59.9193)" fill="#D9D9D9"/>
<rect x="11" y="23.5595" width="67.5011" height="68.183" rx="23" transform="rotate(-9 11 23.5595)" fill="#CA500E"/>
<path d="M142.233 77.712C138.265 77.712 134.66 77.0507 131.417 75.728C128.175 74.448 125.401 72.6347 123.097 70.288C120.793 67.8987 119.001 65.04 117.721 61.712C116.484 58.384 115.865 54.6933 115.865 50.64C115.865 46.5867 116.527 42.896 117.849 39.568C119.215 36.24 121.071 33.4027 123.417 31.056C125.764 28.6667 128.559 26.832 131.801 25.552C135.044 24.2293 138.543 23.568 142.297 23.568C148.015 23.568 152.793 24.848 156.633 27.408C160.516 29.9253 163.375 33.5093 165.209 38.16C165.295 38.416 165.337 38.5867 165.337 38.672C165.337 39.184 165.06 39.4827 164.505 39.568L153.625 42.448C153.455 42.5333 153.327 42.576 153.241 42.576C152.857 42.576 152.516 42.3627 152.217 41.936C150.084 38.2667 146.777 36.432 142.297 36.432C140.377 36.432 138.628 36.7733 137.049 37.456C135.513 38.096 134.191 39.0347 133.081 40.272C131.972 41.5093 131.097 43.0027 130.457 44.752C129.86 46.5013 129.561 48.464 129.561 50.64C129.561 52.816 129.86 54.7787 130.457 56.528C131.097 58.2773 131.972 59.7707 133.081 61.008C134.233 62.2453 135.577 63.2053 137.113 63.888C138.692 64.528 140.42 64.848 142.297 64.848C144.9 64.848 147.161 64.2933 149.081 63.184C151.044 62.032 152.516 60.112 153.497 57.424C153.796 56.7413 154.244 56.4853 154.841 56.656L165.657 59.536C166.34 59.7067 166.617 60.0907 166.489 60.688C165.721 63.1627 164.612 65.4453 163.161 67.536C161.711 69.6267 159.94 71.44 157.849 72.976C155.801 74.4693 153.455 75.6213 150.809 76.432C148.207 77.2853 145.348 77.712 142.233 77.712ZM187.993 77.392C185.391 77.392 183.001 76.9227 180.825 75.984C178.692 75.0453 176.857 73.7227 175.321 72.016C173.785 70.2667 172.591 68.1973 171.737 65.808C170.884 63.4187 170.457 60.752 170.457 57.808C170.457 54.864 170.884 52.1973 171.737 49.808C172.591 47.4187 173.785 45.3707 175.321 43.664C176.857 41.9573 178.692 40.6347 180.825 39.696C183.001 38.7573 185.391 38.288 187.993 38.288C190.425 38.288 192.58 38.736 194.457 39.632C196.335 40.528 197.956 41.7867 199.321 43.408L199.449 40.08C199.449 39.7387 199.556 39.4827 199.769 39.312C199.983 39.0987 200.26 38.992 200.601 38.992H209.497C210.265 38.992 210.649 39.3547 210.649 40.08V75.536C210.649 76.304 210.265 76.688 209.497 76.688H200.601C200.26 76.688 199.983 76.5813 199.769 76.368C199.556 76.1547 199.449 75.8773 199.449 75.536L199.321 72.208C197.956 73.872 196.335 75.152 194.457 76.048C192.58 76.944 190.425 77.392 187.993 77.392ZM191.129 66.192C193.433 66.192 195.289 65.424 196.697 63.888C198.148 62.3093 198.873 60.2827 198.873 57.808C198.873 55.3333 198.148 53.328 196.697 51.792C195.289 50.256 193.433 49.488 191.129 49.488C188.825 49.488 186.948 50.256 185.497 51.792C184.089 53.328 183.385 55.3333 183.385 57.808C183.385 60.2827 184.089 62.3093 185.497 63.888C186.948 65.424 188.825 66.192 191.129 66.192ZM220.029 76.688C219.261 76.688 218.877 76.304 218.877 75.536V40.08C218.877 39.3547 219.261 38.992 220.029 38.992H228.925C229.736 38.992 230.141 39.3547 230.141 40.08L230.333 43.92C231.613 42 233.213 40.6133 235.133 39.76C237.053 38.9067 239.144 38.48 241.405 38.48C241.875 38.48 242.344 38.5013 242.813 38.544C243.283 38.5867 243.709 38.672 244.093 38.8C244.776 39.0133 245.117 39.44 245.117 40.08V49.808C245.117 50.5333 244.691 50.832 243.837 50.704C243.325 50.6187 242.771 50.5547 242.173 50.512C241.576 50.4267 240.915 50.384 240.189 50.384C239.251 50.384 238.269 50.5333 237.245 50.832C236.264 51.1307 235.347 51.6 234.493 52.24C233.683 52.88 233 53.712 232.445 54.736C231.933 55.7173 231.677 56.912 231.677 58.32V75.536C231.677 76.304 231.293 76.688 230.525 76.688H220.029ZM265.618 77.392C263.016 77.392 260.626 76.9227 258.45 75.984C256.317 75.0453 254.482 73.7227 252.946 72.016C251.41 70.2667 250.216 68.1973 249.362 65.808C248.509 63.4187 248.082 60.752 248.082 57.808C248.082 54.864 248.509 52.1973 249.362 49.808C250.216 47.4187 251.41 45.3707 252.946 43.664C254.482 41.9573 256.317 40.6347 258.45 39.696C260.626 38.7573 263.016 38.288 265.618 38.288C268.05 38.288 270.205 38.736 272.082 39.632C273.96 40.528 275.581 41.7867 276.946 43.408L277.074 40.08C277.074 39.7387 277.181 39.4827 277.394 39.312C277.608 39.0987 277.885 38.992 278.226 38.992H287.122C287.89 38.992 288.274 39.3547 288.274 40.08V75.536C288.274 76.304 287.89 76.688 287.122 76.688H278.226C277.885 76.688 277.608 76.5813 277.394 76.368C277.181 76.1547 277.074 75.8773 277.074 75.536L276.946 72.208C275.581 73.872 273.96 75.152 272.082 76.048C270.205 76.944 268.05 77.392 265.618 77.392ZM268.754 66.192C271.058 66.192 272.914 65.424 274.322 63.888C275.773 62.3093 276.498 60.2827 276.498 57.808C276.498 55.3333 275.773 53.328 274.322 51.792C272.914 50.256 271.058 49.488 268.754 49.488C266.45 49.488 264.573 50.256 263.122 51.792C261.714 53.328 261.01 55.3333 261.01 57.808C261.01 60.2827 261.714 62.3093 263.122 63.888C264.573 65.424 266.45 66.192 268.754 66.192ZM297.654 76.688C296.886 76.688 296.502 76.304 296.502 75.536V40.08C296.502 39.3547 296.886 38.992 297.654 38.992H306.614C307.382 38.992 307.766 39.3547 307.766 40.08L307.958 43.664C309.324 41.8293 310.966 40.4853 312.886 39.632C314.849 38.736 317.068 38.288 319.542 38.288C322.23 38.288 324.556 38.7787 326.518 39.76C328.524 40.7413 330.102 42.1707 331.254 44.048C332.62 42.0853 334.326 40.6347 336.374 39.696C338.465 38.7573 340.812 38.288 343.414 38.288C347.809 38.288 351.18 39.504 353.526 41.936C355.916 44.368 357.11 47.76 357.11 52.112V75.536C357.11 76.304 356.769 76.688 356.086 76.688H345.526C345.185 76.688 344.908 76.5813 344.694 76.368C344.481 76.1547 344.374 75.8773 344.374 75.536V56.912C344.374 54.2667 343.948 52.368 343.094 51.216C342.284 50.064 341.004 49.488 339.254 49.488C337.42 49.488 335.948 50.192 334.838 51.6C333.772 52.9653 333.238 55.0347 333.238 57.808V75.536C333.238 76.304 332.854 76.688 332.086 76.688H321.59C320.822 76.688 320.438 76.304 320.438 75.536V56.912C320.438 54.2667 320.033 52.368 319.222 51.216C318.412 50.064 317.11 49.488 315.318 49.488C313.526 49.488 312.076 50.192 310.966 51.6C309.857 52.9653 309.302 55.0347 309.302 57.808V75.536C309.302 76.304 308.918 76.688 308.15 76.688H297.654ZM382.983 77.392C379.997 77.392 377.266 76.9013 374.791 75.92C372.359 74.9813 370.29 73.6587 368.583 71.952C366.877 70.2027 365.554 68.1333 364.615 65.744C363.677 63.3547 363.207 60.7093 363.207 57.808C363.207 54.9067 363.677 52.2613 364.615 49.872C365.554 47.4827 366.877 45.4347 368.583 43.728C370.29 42.0213 372.359 40.6987 374.791 39.76C377.266 38.7787 379.997 38.288 382.983 38.288C386.141 38.288 388.914 38.8213 391.303 39.888C393.693 40.9547 395.677 42.448 397.255 44.368C398.834 46.2453 399.986 48.528 400.711 51.216C401.479 53.8613 401.778 56.784 401.607 59.984C401.522 60.7093 401.117 61.072 400.391 61.072H376.135C376.605 62.9493 377.415 64.3787 378.567 65.36C379.762 66.3413 381.255 66.832 383.047 66.832C385.906 66.832 387.975 65.936 389.255 64.144C389.682 63.6747 390.194 63.504 390.791 63.632L399.879 66.704C400.349 66.9173 400.583 67.1947 400.583 67.536C400.583 67.7067 400.519 67.92 400.391 68.176C399.538 69.7973 398.471 71.184 397.191 72.336C395.954 73.488 394.567 74.4267 393.031 75.152C391.538 75.92 389.938 76.4747 388.231 76.816C386.525 77.2 384.775 77.392 382.983 77.392ZM389.063 54.096C388.722 52.2187 388.018 50.7893 386.951 49.808C385.885 48.784 384.498 48.272 382.791 48.272C380.999 48.272 379.527 48.7627 378.375 49.744C377.266 50.7253 376.519 52.176 376.135 54.096H389.063ZM408.904 76.688C408.136 76.688 407.752 76.304 407.752 75.536V24.592C407.752 23.824 408.136 23.44 408.904 23.44H419.4C420.168 23.44 420.552 23.824 420.552 24.592V75.536C420.552 76.304 420.168 76.688 419.4 76.688H408.904Z" fill="#222222"/>
</svg>
